# xmcd
#
# Track frame offsets:
#	150
#	19188
#	38499
#	58440
#	72390
#	85047
#	100966
#	114412
#	132602
#	146213
#	160405
#	180514
#	193571
#	207879
#	225672
#	239847
#	253989
#	268997
#	283389
#	298755
#
# Disc length: 4173 seconds
#
# Revision: 0
# Processed by: cddbd v1.5.2PL0 Copyright (c) Steve Scherf et al.
# Submitted via: EasyCDDAExtractor 16.0.6.1
#
DISCID=46104b14
DTITLE=Συλλογικός δίσκος - Τα ρεμπέτικα Α 1850-1922 01 Β
DYEAR=2010
DGENRE=Ρεμπέτικη
TTITLE0=Καλλίνικος Δημήτρης ή Αραπάκης - Ο Μεμέτης [ζεϊμπέκικο, Αθήνα 1931]
TTITLE1=Παπαγκίκα Μαρίκα - Μήλο μου και μανταρίνι [ρεμπέτικο, Ν. Υόρκη 6.1928]
TTITLE2=Νικολάου Τάκης - Αραμπάς περνάει [αγριλαμάς, Ν. Υόρκη 14.2.1929]
TTITLE3=Διαμαντίδης Αντώνης ή Νταλγκάς - Από λίγο λίγο [ρεμπέτικο (αγριλαμάς) 
TTITLE3=Αθήνα 1928]
TTITLE4=Ελληνική Εστουδιαντίνα - Βουρνοβαλιά [Σμύρνη 1909]
TTITLE5=Κούλα κυρία - Νέο μελαχροινό [Ν. Υόρκη 1916 ή 1917]
TTITLE6=Διαμαντίδης Αντώνης ή Νταλγκάς - Μπουτζαλιά [Γεώργιος Καρράς, Αθήνα 19
TTITLE6=28]
TTITLE7=Παπαγκίκα Μαρίκα - Μπραΐλα [ζεϊμπέκικο, Νικήτας Τσοπανάκης, Ν. Υόρκη 1
TTITLE7=0.1928]
TTITLE8=Μαρσέλος Κώστας ή Νούρος - Memo [curcuna 10/8, Αθήνα 1929]
TTITLE9=Διαμαντίδης Αντώνης ή Νταλγκάς - Μανές της αυγής [Αθήνα 1928]
TTITLE10=Στασινόπουλος Σωτήρης - Η τράτα [συρτό, Ν. Υόρκη 28.2.1927]
TTITLE11=Καρίπης Κώστας - Νέοι χασικλήδες [απτάλικος, Αθήνα 1930]
TTITLE12=Διαμαντίδης Αντώνης ή Νταλγκάς - Μπαγλαμάδες [ζεϊμπέκικος, Αθήνα 1929
TTITLE12=]
TTITLE13=Παπαγκίκα Μαρίκα - Κυρά Ντουντού [ζεϊμπέκικο, Ν. Υόρκη 1928]
TTITLE14=Διαμαντίδης Αντώνης ή Νταλγκάς - Μπάρμπα Γιαννακάκης [ρεμπέτικο, Αθήν
TTITLE14=α 1928]
TTITLE15=Μενεμενλής Λευτέρης - Η θάλασσα [Νικ. Κόκκινος-Κώστας Διγενάκης, ΚΠολ
TTITLE15=η 9.2.1911]
TTITLE16=Φωκίου Ιωάννης ή Χιώτης - Μανές Ταμπαχανιώτικος [Αθήνα 1931]
TTITLE17=Ψωματιανός Γιάγκος - Τίκι τίκι τακ [ρεμπέτικο, ΚΠολη 1913(;)]
TTITLE18=Καλογεράς Κώστας ή Μάϊκ Πατρινός - Ο Καραγκιόζης δικηγόρος [Greek com
TTITLE18=ic sketch, Ν. Υόρκη 1.1927]
TTITLE19=Άνευ ερμηνευτού - Χασάπικο Κγάϊδα [γκάϊδα (οργανικό) ΚΠολη 1913(;)]
EXTD=
EXTT0=
EXTT1=
EXTT2=
EXTT3=
EXTT4=
EXTT5=
EXTT6=
EXTT7=
EXTT8=
EXTT9=
EXTT10=
EXTT11=
EXTT12=
EXTT13=
EXTT14=
EXTT15=
EXTT16=
EXTT17=
EXTT18=
EXTT19=
PLAYORDER=
